<svg width="11" height="10" viewBox="0 0 11 10" fill="none" xmlns="http://www.w3.org/2000/svg">
<path id="Vector" d="M0.716797 8.0336V9.72226C0.716797 9.8778 0.839003 10 0.994537 10H2.6832C2.75541 10 2.82762 9.97223 2.87761 9.91668L8.94346 3.85639L6.86041 1.77334L0.800119 7.83363C0.744571 7.88918 0.716797 7.95583 0.716797 8.0336ZM10.5544 2.2455C10.6058 2.19411 10.6467 2.13307 10.6746 2.06587C10.7024 1.99867 10.7168 1.92663 10.7168 1.85388C10.7168 1.78113 10.7024 1.7091 10.6746 1.6419C10.6467 1.5747 10.6058 1.51366 10.5544 1.46227L9.25453 0.162447C9.20314 0.110952 9.1421 0.0700976 9.0749 0.0422228C9.0077 0.014348 8.93566 0 8.86291 0C8.79016 0 8.71813 0.014348 8.65093 0.0422228C8.58373 0.0700976 8.52269 0.110952 8.4713 0.162447L7.45477 1.17898L9.53782 3.26203L10.5544 2.2455Z" fill="#eeff00"/>
</svg>
